<?xml version="1.0" standalone="no"?>
<!DOCTYPE svg PUBLIC "-//W3C//DTD SVG 20010904//EN"
 "http://www.w3.org/TR/2001/REC-SVG-20010904/DTD/svg10.dtd">
<svg version="1.0" xmlns="http://www.w3.org/2000/svg"
 width="700.000000pt" height="700.000000pt" viewBox="0 0 700.000000 700.000000"
 preserveAspectRatio="xMidYMid meet">
<metadata>
Created by potrace 1.11, written by Peter Selinger 2001-2013
</metadata>
<g transform="translate(0.000000,700.000000) scale(0.100000,-0.100000)"
fill="#000000" stroke="none">
<path d="M5258 5726 c-3 -18 -2 -3504 1 -3561 1 -20 7 -21 209 -20 l207 0 5
1705 c3 938 8 1714 12 1725 4 11 12 46 19 78 19 92 21 92 -235 93 -210 1 -214
0 -218 -20z"/>
<path d="M4133 5622 l-23 -3 -2 -351 -3 -351 -502 1 -503 0 0 -197 0 -197 503
1 502 0 3 -268 2 -267 -505 0 -505 0 0 -200 0 -200 505 0 505 0 0 -635 0 -635
212 3 212 2 1 1540 c2 1505 2 1542 22 1621 21 84 17 119 -13 131 -16 6 -371
10 -411 5z"/>
<path d="M1212 5382 l-32 -3 2 -1232 3 -1232 205 2 c344 2 671 16 930 38 25 2
85 7 134 10 49 4 96 8 105 10 9 1 50 6 91 10 41 3 89 8 105 10 17 2 57 7 90
10 33 4 69 9 79 11 11 2 56 8 100 14 45 6 92 13 106 15 14 3 42 7 62 10 195
31 276 44 294 49 12 2 39 7 60 10 100 16 199 50 190 64 -2 4 -7 40 -11 80 -3
39 -8 81 -10 92 -2 11 -7 53 -10 93 -9 114 2 107 -133 81 -136 -27 -317 -60
-382 -69 -66 -10 -81 -12 -120 -19 -85 -13 -180 -26 -235 -31 -33 -4 -71 -8
-85 -10 -70 -11 -296 -31 -445 -40 -55 -4 -111 -8 -124 -10 -14 -3 -126 -7
-250 -11 -124 -3 -247 -7 -273 -8 l-48 -3 0 911 c0 875 1 914 20 994 25 103
25 115 1 136 -16 15 -45 17 -202 19 -101 1 -199 1 -217 -1z"/>
<path d="M3491 2433 c-7 -264 -78 -479 -234 -707 -75 -110 -278 -316 -395
-401 -294 -213 -644 -383 -1087 -528 -93 -31 -190 -61 -214 -67 l-43 -11 23
-26 c53 -59 209 -212 250 -245 63 -52 82 -54 177 -19 702 259 1287 662 1736
1194 l49 58 16 -24 c107 -159 496 -522 734 -685 340 -233 726 -429 1089 -553
31 -11 42 -10 63 1 34 18 243 237 279 292 21 32 26 28 -79 53 -268 64 -671
240 -968 423 -37 23 -69 42 -72 42 -10 0 -280 185 -365 251 -187 144 -355 332
-431 481 -56 111 -81 252 -64 363 2 17 7 53 10 82 10 81 4 83 -256 83 l-216 0
-2 -57z"/>
</g>
</svg>
